<svg xmlns="http://www.w3.org/2000/svg" viewBox="0 0 100 100">
  <rect width="100" height="100" rx="20" fill="#2563eb"/>
  <path d="M50.394 22.08a1 1 0 00-.788 0l-28 12a1 1 0 000 1.84L26.25 38.051a.999.999 0 01.356-.257l16-6.856a1 1 0 11.788 1.838L30.667 39.088l7.76 3.324a1 1 0 00.787 0l28-12a1 1 0 000-1.838l-28-12zM13.31 39.397L20 42.12v16.408a8.969 8.969 0 00-4.2-.696 1 1 0 01-.89-.89 11.115 11.115 0 01.25-3.762zM37.2 66.573A9.026 9.026 0 0028 59.87V44.043l7.272 3.12a3 3 0 002.364 0l22.032-9.444a11.026 11.026 0 01.25 3.762 1 1 0 01-.89.89 8.968 8.968 0 00-21.4 10.096 1 1 0 01-1.4 0zM24 72a1 1 0 001-1v-8.26a8.935 8.935 0 00-8-2.848V68a1 1 0 001 1z" fill="white"/>
</svg>
